<svg width="22" height="22" viewBox="0 0 22 22" fill="none" xmlns="http://www.w3.org/2000/svg">
<path d="M18.7782 3.22184C16.7005 1.14421 13.9382 0 11 0C8.0618 0 5.29947 1.14421 3.2218 3.22184C1.14421 5.29947 0 8.0618 0 11C0 13.9382 1.14421 16.7005 3.2218 18.7782C5.29947 20.8558 8.0618 22 11 22C13.9382 22 16.7005 20.8558 18.7782 18.7782C20.8558 16.7005 22 13.9382 22 11C22 8.0618 20.8558 5.29947 18.7782 3.22184ZM11 20.7109C8.12672 20.7109 5.54138 19.4562 3.76183 17.4663C4.86505 14.5416 7.68917 12.4609 11 12.4609C8.86419 12.4609 7.13281 10.7296 7.13281 8.59375C7.13281 6.45795 8.86419 4.72656 11 4.72656C13.1358 4.72656 14.8672 6.45795 14.8672 8.59375C14.8672 10.7296 13.1358 12.4609 11 12.4609C14.3108 12.4609 17.1349 14.5416 18.2382 17.4663C16.4586 19.4562 13.8733 20.7109 11 20.7109Z" fill="#9CA4B7"/>
</svg>
